<svg width="231" height="306" viewBox="0 0 231 306" fill="none" xmlns="http://www.w3.org/2000/svg">
<g clip-path="url(#clip0_216_6)">
<path d="M87.53 284L41 237.47V172.13L62.78 150.35L41 128.57V63.23L84.56 20H152.87L196.43 63.56V128.57L174.32 150.68L196.1 172.46V237.47L149.57 284H87.53ZM131.09 172.13H104.69L86.87 191.6V220.31L104.69 240.44H131.09L149.24 220.31V191.6L131.09 172.13ZM131.09 60.26H104.69L86.87 79.73V108.44L104.69 128.57H131.09L149.24 108.44V79.73L131.09 60.26Z" fill="#FACC15"/>
<path d="M87.53 284L81.8731 289.657L84.2163 292H87.53V284ZM41 237.47H33V240.784L35.3431 243.127L41 237.47ZM41 172.13L35.3431 166.473L33 168.816V172.13H41ZM62.78 150.35L68.4369 156.007L74.0937 150.35L68.4369 144.693L62.78 150.35ZM41 128.57H33V131.884L35.3431 134.227L41 128.57ZM41 63.23L35.3647 57.5517L33 59.8984V63.23H41ZM84.56 20V12H81.2641L78.9247 14.3217L84.56 20ZM152.87 20L158.527 14.3431L156.184 12H152.87V20ZM196.43 63.56H204.43V60.2463L202.087 57.9031L196.43 63.56ZM196.43 128.57L202.087 134.227L204.43 131.884V128.57H196.43ZM174.32 150.68L168.663 145.023L163.006 150.68L168.663 156.337L174.32 150.68ZM196.1 172.46H204.1V169.146L201.757 166.803L196.1 172.46ZM196.1 237.47L201.757 243.127L204.1 240.784V237.47H196.1ZM149.57 284V292H152.884L155.227 289.657L149.57 284ZM131.09 172.13L136.942 166.675L134.569 164.13H131.09V172.13ZM104.69 172.13V164.13H101.167L98.7886 166.729L104.69 172.13ZM86.87 191.6L80.9686 186.199L78.87 188.492V191.6H86.87ZM86.87 220.31H78.87V223.342L80.8799 225.613L86.87 220.31ZM104.69 240.44L98.6999 245.743L101.088 248.44H104.69V240.44ZM131.09 240.44V248.44H134.649L137.032 245.797L131.09 240.44ZM149.24 220.31L155.182 225.667L157.24 223.384V220.31H149.24ZM149.24 191.6H157.24V188.449L155.092 186.145L149.24 191.6ZM131.09 60.26L136.942 54.805L134.569 52.26H131.09V60.26ZM104.69 60.26V52.26H101.167L98.7886 54.8587L104.69 60.26ZM86.87 79.73L80.9686 74.3287L78.87 76.6217V79.73H86.87ZM86.87 108.44H78.87V111.472L80.8799 113.743L86.87 108.44ZM104.69 128.57L98.6999 133.873L101.088 136.57H104.69V128.57ZM131.09 128.57V136.57H134.649L137.032 133.927L131.09 128.57ZM149.24 108.44L155.182 113.797L157.24 111.514V108.44H149.24ZM149.24 79.73H157.24V76.5795L155.092 74.275L149.24 79.73ZM93.1869 278.343L46.6569 231.813L35.3431 243.127L81.8731 289.657L93.1869 278.343ZM49 237.47V172.13H33V237.47H49ZM46.6569 177.787L68.4369 156.007L57.1231 144.693L35.3431 166.473L46.6569 177.787ZM68.4369 144.693L46.6569 122.913L35.3431 134.227L57.1231 156.007L68.4369 144.693ZM49 128.57V63.23H33V128.57H49ZM46.6353 68.9083L90.1953 25.6783L78.9247 14.3217L35.3647 57.5517L46.6353 68.9083ZM84.56 28H152.87V12H84.56V28ZM147.213 25.6569L190.773 69.2168L202.087 57.9031L158.527 14.3431L147.213 25.6569ZM188.43 63.56V128.57H204.43V63.56H188.43ZM190.773 122.913L168.663 145.023L179.977 156.337L202.087 134.227L190.773 122.913ZM168.663 156.337L190.443 178.117L201.757 166.803L179.977 145.023L168.663 156.337ZM188.1 172.46V237.47H204.1V172.46H188.1ZM190.443 231.813L143.913 278.343L155.227 289.657L201.757 243.127L190.443 231.813ZM149.57 276H87.53V292H149.57V276ZM131.09 164.13H104.69V180.13H131.09V164.13ZM98.7886 166.729L80.9686 186.199L92.7714 197.001L110.591 177.531L98.7886 166.729ZM78.87 191.6V220.31H94.87V191.6H78.87ZM80.8799 225.613L98.6999 245.743L110.68 235.137L92.8601 215.007L80.8799 225.613ZM104.69 248.44H131.09V232.44H104.69V248.44ZM137.032 245.797L155.182 225.667L143.298 214.953L125.148 235.083L137.032 245.797ZM157.24 220.31V191.6H141.24V220.31H157.24ZM155.092 186.145L136.942 166.675L125.238 177.585L143.388 197.055L155.092 186.145ZM131.09 52.26H104.69V68.26H131.09V52.26ZM98.7886 54.8587L80.9686 74.3287L92.7714 85.1313L110.591 65.6613L98.7886 54.8587ZM78.87 79.73V108.44H94.87V79.73H78.87ZM80.8799 113.743L98.6999 133.873L110.68 123.267L92.8601 103.137L80.8799 113.743ZM104.69 136.57H131.09V120.57H104.69V136.57ZM137.032 133.927L155.182 113.797L143.298 103.083L125.148 123.213L137.032 133.927ZM157.24 108.44V79.73H141.24V108.44H157.24ZM155.092 74.275L136.942 54.805L125.238 65.715L143.388 85.185L155.092 74.275Z" fill="#7E22CE"/>
</g>
<defs>
<clipPath id="clip0_216_6">
<rect width="231" height="306" fill="white"/>
</clipPath>
</defs>
</svg>
