<svg width="426" height="318" viewBox="0 0 426 318" fill="none" xmlns="http://www.w3.org/2000/svg">
<path d="M193.13 284V221.96H146.6V240.44H84.56L190.16 94.58V60.59L149.9 20H93.8L84.56 29.24V20H41V94.58H84.56V79.07L103.04 60.59H128.12L146.6 79.07L41 221.96V284H193.13ZM325.205 240.44V187.97H241.385L216.635 141.11L315.965 20H372.065V144.08H390.545V187.97H372.065V240.44H390.545V284H309.695V240.77L325.205 240.44ZM325.205 144.41V79.4L272.405 144.41H325.205Z" fill="#FACC15"/>
<path d="M193.13 284V292H201.13V284H193.13ZM193.13 221.96H201.13V213.96H193.13V221.96ZM146.6 221.96V213.96H138.6V221.96H146.6ZM146.6 240.44V248.44H154.6V240.44H146.6ZM84.56 240.44L78.08 235.749L68.8916 248.44H84.56V240.44ZM190.16 94.58L196.64 99.2714L198.16 97.1719V94.58H190.16ZM190.16 60.59H198.16V57.2954L195.84 54.9563L190.16 60.59ZM149.9 20L155.58 14.3663L153.233 12H149.9V20ZM93.8 20V12H90.4863L88.1432 14.3431L93.8 20ZM84.56 29.24H76.56V48.5537L90.2169 34.8969L84.56 29.24ZM84.56 20H92.56V12H84.56V20ZM41 20V12H33V20H41ZM41 94.58H33V102.58H41V94.58ZM84.56 94.58V102.58H92.56V94.58H84.56ZM84.56 79.07L78.9031 73.4131L76.56 75.7563V79.07H84.56ZM103.04 60.59V52.59H99.7263L97.3831 54.9331L103.04 60.59ZM128.12 60.59L133.777 54.9331L131.434 52.59H128.12V60.59ZM146.6 79.07L153.034 83.8247L157.128 78.2844L152.257 73.4131L146.6 79.07ZM41 221.96L34.5663 217.205L33 219.325V221.96H41ZM41 284H33V292H41V284ZM201.13 284V221.96H185.13V284H201.13ZM193.13 213.96H146.6V229.96H193.13V213.96ZM138.6 221.96V240.44H154.6V221.96H138.6ZM146.6 232.44H84.56V248.44H146.6V232.44ZM91.04 245.131L196.64 99.2714L183.68 89.8886L78.08 235.749L91.04 245.131ZM198.16 94.58V60.59H182.16V94.58H198.16ZM195.84 54.9563L155.58 14.3663L144.22 25.6337L184.48 66.2237L195.84 54.9563ZM149.9 12H93.8V28H149.9V12ZM88.1432 14.3431L78.9031 23.5831L90.2169 34.8969L99.4569 25.6569L88.1432 14.3431ZM92.56 29.24V20H76.56V29.24H92.56ZM84.56 12H41V28H84.56V12ZM33 20V94.58H49V20H33ZM41 102.58H84.56V86.58H41V102.58ZM92.56 94.58V79.07H76.56V94.58H92.56ZM90.2169 84.7268L108.697 66.2468L97.3831 54.9331L78.9031 73.4131L90.2169 84.7268ZM103.04 68.59H128.12V52.59H103.04V68.59ZM122.463 66.2468L140.943 84.7268L152.257 73.4131L133.777 54.9331L122.463 66.2468ZM140.166 74.3153L34.5663 217.205L47.4337 226.715L153.034 83.8247L140.166 74.3153ZM33 221.96V284H49V221.96H33ZM41 292H193.13V276H41V292ZM325.205 240.44L325.375 248.438L333.205 248.272V240.44H325.205ZM325.205 187.97H333.205V179.97H325.205V187.97ZM241.385 187.97L234.311 191.706L236.563 195.97H241.385V187.97ZM216.635 141.11L210.449 136.037L207.079 140.146L209.561 144.846L216.635 141.11ZM315.965 20V12H312.18L309.779 14.9268L315.965 20ZM372.065 20H380.065V12H372.065V20ZM372.065 144.08H364.065V152.08H372.065V144.08ZM390.545 144.08H398.545V136.08H390.545V144.08ZM390.545 187.97V195.97H398.545V187.97H390.545ZM372.065 187.97V179.97H364.065V187.97H372.065ZM372.065 240.44H364.065V248.44H372.065V240.44ZM390.545 240.44H398.545V232.44H390.545V240.44ZM390.545 284V292H398.545V284H390.545ZM309.695 284H301.695V292H309.695V284ZM309.695 240.77L309.525 232.772L301.695 232.938V240.77H309.695ZM325.205 144.41V152.41H333.205V144.41H325.205ZM325.205 79.4H333.205V56.8605L318.995 74.3564L325.205 79.4ZM272.405 144.41L266.195 139.366L255.601 152.41H272.405V144.41ZM333.205 240.44V187.97H317.205V240.44H333.205ZM325.205 179.97H241.385V195.97H325.205V179.97ZM248.459 184.234L223.709 137.374L209.561 144.846L234.311 191.706L248.459 184.234ZM222.82 146.183L322.15 25.0732L309.779 14.9268L210.449 136.037L222.82 146.183ZM315.965 28H372.065V12H315.965V28ZM364.065 20V144.08H380.065V20H364.065ZM372.065 152.08H390.545V136.08H372.065V152.08ZM382.545 144.08V187.97H398.545V144.08H382.545ZM390.545 179.97H372.065V195.97H390.545V179.97ZM364.065 187.97V240.44H380.065V187.97H364.065ZM372.065 248.44H390.545V232.44H372.065V248.44ZM382.545 240.44V284H398.545V240.44H382.545ZM390.545 276H309.695V292H390.545V276ZM317.695 284V240.77H301.695V284H317.695ZM309.865 248.768L325.375 248.438L325.035 232.442L309.525 232.772L309.865 248.768ZM333.205 144.41V79.4H317.205V144.41H333.205ZM318.995 74.3564L266.195 139.366L278.615 149.454L331.415 84.4436L318.995 74.3564ZM272.405 152.41H325.205V136.41H272.405V152.41Z" fill="#7E22CE"/>
</svg>
