<?xml version="1.0" standalone="no"?>
<!DOCTYPE svg PUBLIC "-//W3C//DTD SVG 20010904//EN"
 "http://www.w3.org/TR/2001/REC-SVG-20010904/DTD/svg10.dtd">
<svg version="1.0" xmlns="http://www.w3.org/2000/svg"
 width="444.000000pt" height="444.000000pt" viewBox="0 0 444.000000 444.000000"
 preserveAspectRatio="xMidYMid meet">

<g transform="translate(0.000000,444.000000) scale(0.100000,-0.100000)"
fill="#000000" stroke="none">
<path d="M0 2220 l0 -2220 2220 0 2220 0 0 2220 0 2220 -2220 0 -2220 0 0
-2220z m1117 1390 c3 -11 7 -20 10 -20 3 0 16 9 30 20 24 19 41 20 300 20
l273 0 43 -39 c23 -22 116 -114 206 -205 l165 -165 -3 -178 -3 -177 -141 -195
c-78 -108 -177 -246 -222 -307 -44 -62 -150 -208 -236 -325 -86 -118 -170
-234 -187 -259 -17 -25 -69 -97 -116 -160 -46 -63 -82 -118 -80 -121 2 -3 117
-5 256 -5 l253 1 5 85 5 85 248 3 247 2 -2 -322 -3 -323 -735 -3 c-404 -1
-745 0 -757 3 l-23 5 0 314 0 314 140 189 c78 103 179 240 225 303 47 63 136
185 200 270 63 85 147 199 187 254 40 54 99 133 130 175 31 42 74 100 94 129
l38 53 -77 76 -76 77 -115 -3 -115 -2 -80 -81 -81 -81 0 -79 0 -78 -235 0
-235 0 0 378 c0 208 3 382 7 385 3 4 107 7 231 7 215 0 224 -1 229 -20z m2551
8 c9 -9 12 -157 12 -605 l0 -593 85 0 c47 0 85 -3 85 -7 1 -47 1 -432 1 -445
-1 -16 -12 -18 -85 -18 -72 0 -85 -3 -90 -17 -11 -35 -4 -423 8 -431 6 -4 43
-7 83 -7 40 0 76 -4 80 -10 4 -5 6 -111 3 -235 l-5 -225 -399 -3 c-286 -1
-403 1 -412 9 -11 9 -14 57 -14 230 0 120 4 220 9 223 5 3 38 6 74 7 l66 2 3
191 c2 105 2 208 0 229 l-3 37 -399 0 -398 0 -126 236 c-69 130 -126 240 -126
244 0 7 61 83 240 300 47 56 99 119 115 140 111 138 150 186 155 190 3 3 37
43 75 90 38 47 92 112 120 146 27 33 86 105 130 159 44 55 95 116 114 137 l33
38 277 0 c202 0 280 -3 289 -12z"/>
<path d="M3125 2898 c-22 -27 -45 -55 -50 -61 -10 -12 -119 -146 -250 -307
-38 -47 -73 -87 -77 -88 -5 -2 -6 -8 -2 -13 3 -5 99 -9 215 -9 160 0 209 3
210 13 2 38 -1 510 -3 512 -2 1 -21 -20 -43 -47z"/>
</g>
</svg>
