<?xml version="1.0" standalone="no"?>
<!DOCTYPE svg PUBLIC "-//W3C//DTD SVG 20010904//EN"
 "http://www.w3.org/TR/2001/REC-SVG-20010904/DTD/svg10.dtd">
<svg version="1.0" xmlns="http://www.w3.org/2000/svg"
 width="328.000000pt" height="328.000000pt" viewBox="0 0 328.000000 328.000000"
 preserveAspectRatio="xMidYMid meet">

<g transform="translate(0.000000,328.000000) scale(0.100000,-0.100000)"
fill="#000000" stroke="none">
<path d="M1023 2697 l-203 -202 0 -305 0 -305 105 -105 c58 -58 105 -110 105
-117 0 -7 -47 -59 -105 -116 l-105 -104 0 -309 0 -310 219 -217 219 -217 289
0 288 0 220 220 220 220 0 305 0 305 -110 110 -110 110 110 110 110 110 3 302
3 301 -208 209 -207 208 -320 0 -320 0 -203 -203z m749 -239 l97 -103 1 -147
0 -147 -92 -106 -92 -105 -146 0 -145 0 -92 106 -93 105 0 144 0 145 91 99
c50 55 96 102 102 105 7 2 71 5 142 5 l130 2 97 -103z m-144 -984 l61 -7 91
-99 90 -98 0 -148 0 -147 -90 -100 c-49 -54 -97 -102 -107 -106 -10 -3 -76 -6
-146 -5 l-129 1 -25 30 c-14 17 -53 60 -86 97 -34 38 -64 74 -69 80 -4 7 -8
77 -8 155 l0 143 63 67 c35 38 76 82 92 100 24 28 34 33 89 36 33 2 73 4 87 5
14 1 54 -1 87 -4z"/>
</g>
</svg>
